<svg width="363" height="113" viewBox="0 0 363 113" fill="none" xmlns="http://www.w3.org/2000/svg">
<path d="M6.06218 109L64.9519 7L123.842 109H6.06218Z" stroke="black" stroke-width="7" stroke-miterlimit="1.13789" stroke-linejoin="round"/>
<path d="M64.9519 30L103.923 97.5H25.9808L64.9519 30Z" fill="black"/>
<path d="M140.54 84V29.4545H160.995C165.185 29.4545 168.701 30.1825 171.542 31.6385C174.4 33.0945 176.558 35.1364 178.014 37.7642C179.487 40.3743 180.224 43.4194 180.224 46.8995C180.224 50.3974 179.479 53.4336 177.987 56.0082C176.513 58.565 174.338 60.5447 171.462 61.9474C168.585 63.3324 165.052 64.0249 160.862 64.0249H146.293V55.8217H159.53C161.98 55.8217 163.987 55.4844 165.549 54.8097C167.112 54.1172 168.266 53.114 169.012 51.8001C169.775 50.4684 170.157 48.8349 170.157 46.8995C170.157 44.9641 169.775 43.3129 169.012 41.9457C168.248 40.5607 167.085 39.5131 165.523 38.8029C163.96 38.0749 161.945 37.7109 159.477 37.7109H150.421V84H140.54ZM168.719 59.2841L182.222 84H171.196L157.932 59.2841H168.719ZM206.418 84.799C202.317 84.799 198.775 83.9467 195.792 82.2422C192.826 80.5199 190.545 78.0874 188.947 74.9446C187.349 71.7841 186.55 68.0643 186.55 63.7852C186.55 59.5771 187.349 55.8839 188.947 52.7056C190.563 49.5096 192.818 47.0238 195.712 45.2482C198.606 43.4549 202.006 42.5582 205.912 42.5582C208.434 42.5582 210.813 42.9666 213.05 43.7834C215.305 44.5824 217.294 45.8253 219.016 47.5121C220.756 49.1989 222.123 51.3473 223.118 53.9574C224.112 56.5497 224.609 59.6392 224.609 63.2259V66.1822H191.077V59.6836H215.367C215.349 57.837 214.95 56.1946 214.169 54.7564C213.387 53.3004 212.296 52.1552 210.893 51.3207C209.508 50.4862 207.892 50.0689 206.046 50.0689C204.075 50.0689 202.343 50.5483 200.852 51.5071C199.361 52.4482 198.198 53.6911 197.363 55.2358C196.546 56.7628 196.129 58.4407 196.111 60.2695V65.9425C196.111 68.3217 196.546 70.3636 197.416 72.0682C198.286 73.755 199.503 75.0511 201.065 75.9567C202.628 76.8445 204.456 77.2884 206.552 77.2884C207.954 77.2884 209.224 77.093 210.36 76.7024C211.497 76.294 212.482 75.6992 213.316 74.918C214.151 74.1367 214.781 73.169 215.207 72.0149L224.21 73.027C223.641 75.4062 222.558 77.4837 220.96 79.2592C219.38 81.017 217.356 82.3842 214.888 83.3608C212.42 84.3196 209.597 84.799 206.418 84.799ZM244.538 84.8256C241.945 84.8256 239.61 84.364 237.533 83.4407C235.473 82.4996 233.84 81.1147 232.632 79.2859C231.443 77.457 230.848 75.2021 230.848 72.521C230.848 70.2127 231.274 68.304 232.126 66.7947C232.979 65.2855 234.142 64.0781 235.615 63.1726C237.089 62.267 238.749 61.5835 240.596 61.1218C242.46 60.6424 244.387 60.2962 246.375 60.0831C248.772 59.8345 250.717 59.6126 252.208 59.4173C253.7 59.2042 254.783 58.8846 255.457 58.4585C256.15 58.0146 256.496 57.331 256.496 56.4077V56.2479C256.496 54.2415 255.901 52.6879 254.712 51.587C253.522 50.4862 251.809 49.9357 249.571 49.9357C247.21 49.9357 245.337 50.4506 243.952 51.4805C242.584 52.5103 241.661 53.7266 241.182 55.1293L232.18 53.8509C232.89 51.3651 234.062 49.2876 235.695 47.6186C237.329 45.9318 239.326 44.6712 241.688 43.8366C244.049 42.9844 246.659 42.5582 249.518 42.5582C251.489 42.5582 253.451 42.7891 255.404 43.2507C257.357 43.7124 259.142 44.4759 260.757 45.5412C262.373 46.5888 263.669 48.0181 264.646 49.8292C265.64 51.6403 266.137 53.9041 266.137 56.6207V84H256.869V78.3803H256.549C255.963 79.5167 255.138 80.582 254.072 81.5763C253.025 82.5529 251.702 83.343 250.104 83.9467C248.524 84.5327 246.668 84.8256 244.538 84.8256ZM247.041 77.7411C248.977 77.7411 250.654 77.3594 252.075 76.5959C253.495 75.8146 254.587 74.7848 255.351 73.5064C256.132 72.228 256.523 70.8342 256.523 69.3249V64.5043C256.221 64.7528 255.706 64.9837 254.978 65.1967C254.268 65.4098 253.469 65.5962 252.581 65.756C251.693 65.9158 250.814 66.0579 249.944 66.1822C249.074 66.3065 248.32 66.413 247.68 66.5018C246.242 66.6971 244.955 67.0167 243.819 67.4606C242.682 67.9045 241.785 68.5259 241.129 69.3249C240.472 70.1062 240.143 71.1183 240.143 72.3612C240.143 74.1367 240.791 75.4773 242.087 76.3828C243.384 77.2884 245.035 77.7411 247.041 77.7411ZM285.473 29.4545V84H275.832V29.4545H285.473ZM295.388 84V43.0909H304.603V50.0423H305.082C305.935 47.6985 307.346 45.8697 309.317 44.5558C311.288 43.2241 313.641 42.5582 316.375 42.5582C319.145 42.5582 321.48 43.233 323.38 44.5824C325.297 45.9141 326.647 47.734 327.428 50.0423H327.854C328.759 47.7695 330.286 45.9585 332.435 44.609C334.601 43.2418 337.167 42.5582 340.132 42.5582C343.896 42.5582 346.968 43.7479 349.347 46.1271C351.726 48.5064 352.916 51.9776 352.916 56.5408V84H343.248V58.0323C343.248 55.4933 342.573 53.6378 341.224 52.4659C339.875 51.2763 338.223 50.6815 336.27 50.6815C333.944 50.6815 332.124 51.4094 330.81 52.8654C329.514 54.3036 328.866 56.1768 328.866 58.4851V84H319.411V57.6328C319.411 55.5199 318.772 53.8331 317.493 52.5724C316.233 51.3118 314.582 50.6815 312.54 50.6815C311.155 50.6815 309.894 51.0366 308.758 51.7468C307.621 52.4393 306.716 53.4247 306.041 54.7031C305.366 55.9638 305.029 57.4375 305.029 59.1243V84H295.388Z" fill="black"/>
</svg>
